<?xml version="1.0" encoding="UTF-8" standalone="no"?>
<!-- Created with Inkscape (http://www.inkscape.org/) -->

<svg
   width="512"
   height="512"
   viewBox="0 0 512 512"
   version="1.1"
   id="svg1"
   xml:space="preserve"
   inkscape:version="1.3.2 (091e20ef0f, 2023-11-25, custom)"
   sodipodi:docname="josee.svg"
   inkscape:export-filename="josee.png"
   inkscape:export-xdpi="192"
   inkscape:export-ydpi="192"
   xmlns:inkscape="http://www.inkscape.org/namespaces/inkscape"
   xmlns:sodipodi="http://sodipodi.sourceforge.net/DTD/sodipodi-0.dtd"
   xmlns="http://www.w3.org/2000/svg"
   xmlns:svg="http://www.w3.org/2000/svg"><sodipodi:namedview
     id="namedview1"
     pagecolor="#ffffff"
     bordercolor="#666666"
     borderopacity="1.0"
     inkscape:showpageshadow="2"
     inkscape:pageopacity="0.0"
     inkscape:pagecheckerboard="0"
     inkscape:deskcolor="#d1d1d1"
     inkscape:document-units="px"
     inkscape:zoom="0.70710678"
     inkscape:cx="101.11627"
     inkscape:cy="189.50462"
     inkscape:window-width="955"
     inkscape:window-height="1054"
     inkscape:window-x="2881"
     inkscape:window-y="2"
     inkscape:window-maximized="1"
     inkscape:current-layer="svg1" /><defs
     id="defs1"><clipPath
       clipPathUnits="userSpaceOnUse"
       id="clipPath1"><rect
         style="fill:#86aecc;fill-opacity:1;stroke:#dff2fb;stroke-width:0;stroke-linecap:round;stroke-linejoin:round;stroke-miterlimit:3;paint-order:fill markers stroke"
         id="rect2"
         width="512"
         height="512"
         x="0"
         y="0"
         inkscape:label="background"
         rx="256"
         ry="256" /></clipPath></defs><g
     id="g1"
     inkscape:label="icon"><rect
       style="fill:#86aecc;fill-opacity:1;stroke:#dff2fb;stroke-width:0;stroke-linecap:round;stroke-linejoin:round;stroke-miterlimit:3;paint-order:fill markers stroke"
       id="rect1"
       width="512"
       height="512"
       x="0"
       y="0"
       inkscape:label="background"
       rx="256"
       ry="256" /><g
       id="g7"
       inkscape:label="body"
       clip-path="url(#clipPath1)"><rect
         style="display:inline;opacity:1;fill:#99715b;fill-opacity:1;stroke:none;stroke-width:0;stroke-linecap:round;stroke-linejoin:round;stroke-miterlimit:3;stroke-dasharray:none;paint-order:fill markers stroke"
         id="rect7"
         width="181.31445"
         height="96.00502"
         x="162.85864"
         y="318.33279"
         inkscape:label="hair back"
         transform="matrix(1.1980723,0,0,1.1980723,-59.252729,-39.539065)" /><path
         style="display:inline;opacity:1;fill:#fbe6dd;fill-opacity:1;stroke:none;stroke-width:0;stroke-linecap:butt;stroke-linejoin:miter;stroke-dasharray:none;stroke-opacity:1"
         d="m 223.41842,353.71166 c 7.88584,18.79939 6.79371,23.39344 0,31.32099 -21.19937,24.73749 -68.4146,-1.4015 -96.58268,14.96666 -14.35548,8.3418 -22.42127,22.75773 -43.007135,60.35661 H 413.98437 c 0.40217,-36.5552 -2.44697,-55.73992 -82.54704,-71.41896 -31.14674,-6.09677 -34.86413,-28.20245 -34.43662,-58.54115 z"
         id="path4-6-2"
         sodipodi:nodetypes="caaccscc"
         inkscape:label="neck"
         transform="matrix(1.1980723,0,0,1.1980723,-59.252729,-39.539065)" /><path
         style="display:inline;opacity:1;fill:#f9f9f9;fill-opacity:1;stroke:none;stroke-width:0;stroke-linecap:butt;stroke-linejoin:miter;stroke-dasharray:none;stroke-opacity:1"
         d="m 197.02767,416.40539 c -5.06913,-4.43901 -1.49447,-20.14736 -1.75195,-20.13799 -22.36862,0.81348 -49.64433,-7.19029 -68.43966,3.73147 -14.35546,8.3418 -22.42124,22.75771 -43.007081,60.35654 H 413.98437 c 0.40217,-36.55516 -2.44697,-55.73985 -82.54694,-71.41888 -4.21747,-0.82554 -7.93202,-1.9446 -11.20147,-3.33789 0,0 -14.09282,19.90492 -24.12909,26.28861 -22.327,14.20133 -74.20705,26.29858 -99.0792,4.51814 z"
         id="path4-6"
         sodipodi:nodetypes="assccscaa"
         inkscape:label="neck"
         transform="matrix(1.1980723,0,0,1.1980723,-59.252729,-39.539065)" /><ellipse
         style="display:inline;opacity:1;fill:#e4c5b2;fill-opacity:1;stroke:none;stroke-width:0;stroke-linecap:round;stroke-linejoin:round;stroke-miterlimit:3;stroke-dasharray:none;paint-order:fill markers stroke"
         id="path5"
         transform="matrix(0.15142743,0.98846838,-0.76558657,0.64333289,0,0)"
         inkscape:label="neck shadow"
         ry="57.357964"
         rx="39.658562"
         cy="-235.05324"
         cx="517.66919" /><path
         id="path3"
         style="display:inline;opacity:1;fill:#fbe6dd;fill-opacity:1;stroke-width:0;stroke-linecap:round;stroke-linejoin:round;stroke-miterlimit:3;paint-order:fill markers stroke"
         d="m 339.38276,210.9854 c 0,32.7515 0.15795,63.07851 -20.91781,96.0973 -14.56831,22.82377 -41.69491,46.05225 -66.71879,55.69076 -14.76606,-1.35856 -44.08491,-13.57484 -62.10631,-26.8102 -38.18402,-28.04327 -50.8439,-87.04604 -50.8439,-124.97786 0,-55.39052 44.90289,-100.29342 100.29341,-100.29341 55.39052,0 100.2934,44.90289 100.2934,100.29341 z"
         sodipodi:nodetypes="sscssss"
         inkscape:label="head"
         transform="matrix(1.1980723,0,0,1.1980723,-59.252729,-39.539065)" /></g><path
       style="display:inline;opacity:1;fill:#cca486;fill-opacity:1;stroke:none;stroke-width:1px;stroke-linecap:butt;stroke-linejoin:miter;stroke-opacity:1"
       d="m 187.67246,393.44389 c -4.75885,-4.01179 -9.61496,-7.23208 -15.31102,-9.55815 17.05657,-0.5731 25.16599,-0.97498 29.63374,-18.35689 -9.57144,10.73221 -22.89808,6.15876 -24.84615,-4.40812 19.62385,-24.82275 16.21684,-34.53254 -5.39775,-52.55118 -21.71462,-40.92776 -30.71035,-65.41828 -16.99702,-112.69923 11.09134,4.85253 17.20713,0.99731 28.96384,-1.6194 -3.27238,-23.15582 2.5533,-32.49744 9.62315,-53.39165 -1.89954,22.99274 2.48018,36.53731 17.84835,52.13674 -4.81721,-11.64952 -2.9358,-22.78946 -2.02421,-35.00991 2.06092,14.1373 5.42082,28.82146 20.64756,34.11377 -5.351,-5.8042 -6.41948,-13.11705 -8.47325,-20.50935 4.67811,8.81172 10.91888,12.9868 19.06985,18.00381 L 256,187.73529 c -9.49047,-12.47563 -9.4967,-18.10169 -9.4967,-32.75781 10.53462,13.18563 21.34595,22.42179 37.83559,26.60194 -3.08541,-5.57673 -4.70603,-11.36701 -6.0605,-17.50387 9.94169,12.53298 13.97196,10.42204 29.3404,11.2123 10.558,23.70253 16.52596,53.49165 13.69239,79.03546 -5.14096,19.28818 -26.36988,26.94431 -29.80526,51.94052 -0.16536,9.63463 2.38764,19.31971 28.87758,27.64364 -1.82242,14.4582 -15.97506,17.09837 -28.6993,17.06964 4.94554,8.03445 12.92981,10.14362 28.73645,5.39316 0.084,12.21871 5.03268,15.27852 17.00987,19.37208 -8.21036,9.70903 -20.14185,18.59114 -32.81651,12.16637 7.44451,13.5215 22.74604,14.48242 31.68537,10.3518 1.46398,5.6726 5.01268,8.71331 9.03797,12.67563 l 12.14086,1.35709 -4.52267,-6.11388 -3.61221,-7.28691 2.71801,-5.09453 c 2.80959,7.10902 10.78264,13.32966 18.67572,13.41037 1.72974,4.6537 4.66874,5.96278 8.77068,8.31956 l 2.42744,-0.71295 c -3.4861,-2.72589 -4.51942,-4.45166 -4.96281,-8.56401 4.20113,-4.90903 6.13698,-6.0212 13.21212,-6.50157 l 5.20813,-4.47877 c 10.65512,8.47848 28.81852,0.66168 30.86128,-2.06886 -5.78641,2.23907 -10.94008,1.08995 -16.09621,-1.62337 -6.14201,-19.68412 16.42827,-35.02507 26.8214,-36.77677 1.03444,0.89326 10.30105,9.46341 -2.18884,19.77867 12.37376,-6.9355 13.26043,-17.62773 12.44621,-29.88768 19.54933,3.85751 27.66508,-20.09181 29.57344,-26.96091 -3.75653,14.68041 -26.61807,13.33896 -29.52712,-11.58372 11.31323,-5.08789 30.85455,-42.06762 6.24801,-56.26358 -5.75914,-3.25054 -13.08627,-2.75369 -18.99717,-5.71932 C 406.76147,228.46797 398.08734,188.32226 385.27253,160.77492 368.72257,125.19831 320.3835,82.961046 284.33889,73.762948 260.78718,67.75287 243.43622,62.3238 227.62442,76.596312 c -7.73949,-4.426545 -39.49478,-0.295983 -72.87016,32.391288 -24.7166,24.20702 -38.13569,58.73201 -52.03384,89.80251 -5.375721,12.01789 -10.498994,24.19143 -16.87667,35.70895 -14.989686,27.13752 -45.092951,50.76061 -13.896819,78.57344 -41.903398,18.33972 -16.964714,52.31906 8.004664,76.08078 -8.346816,-19.91579 -6.906366,-29.1033 5.470605,-47.0625 -4.55178,16.92078 -0.977554,41.36485 25.49045,40.18514 -3.69507,10.9258 -11.367288,15.02692 -26.171181,13.15648 3.745655,1.66288 23.669111,9.54254 38.912421,-3.46097 l 4.2385,7.39679 7.61521,-3.7396 c 4.06253,2.46945 8.19804,4.14678 12.74945,5.29457 -5.56573,7.84154 -11.36139,10.36468 -20.82205,10.67996 9.02307,7.31774 17.85443,2.69515 24.74466,-2.55192 1.09406,11.99538 7.98946,16.18958 20.12774,13.48092 -24.82817,-3.80333 10.95619,-25.56555 15.36506,-29.08826 z"
       id="path2"
       sodipodi:nodetypes="ccccccccccccccccccasccccccccccccccccccccccccaasscasaccccccccccccc"
       inkscape:label="hair"
       transform="matrix(1.1980723,0,0,1.1980723,-59.252729,-39.539065)" /></g></svg>
